<svg width="45" height="47" viewBox="0 0 45 47" fill="none" xmlns="http://www.w3.org/2000/svg">
<path d="M23.3097 0C23.741 0 24.1546 0.172736 24.4596 0.480209C24.7646 0.787681 24.9359 1.2047 24.9359 1.63953V2.18823C26.9546 2.20739 28.8941 2.98293 30.377 4.36399C31.8599 5.74504 32.7801 7.63285 32.9588 9.66014C32.9891 10.023 32.9891 10.434 32.9891 11.0352V13.7065C32.9891 22.1665 26.6055 29.1181 18.4309 29.9423V34.4302C18.4309 36.8943 19.4018 39.2574 21.13 40.9997C22.8583 42.7421 25.2023 43.7209 27.6463 43.7209H29.5588C30.999 43.7208 32.407 43.2916 33.6061 42.4873C34.8051 41.683 35.7416 40.5394 36.298 39.2002C36.3847 38.9932 36.4462 38.755 36.4823 38.4853C35.0094 38.0026 33.7555 37.0061 32.9461 35.6749C32.1367 34.3436 31.8248 32.765 32.0665 31.2226C32.3082 29.6803 33.0876 28.2755 34.2647 27.2606C35.4417 26.2458 36.9392 25.6875 38.488 25.686C40.1061 25.6843 41.6666 26.2906 42.8651 27.3864C44.0636 28.4823 44.814 29.9892 44.9698 31.6128C45.1255 33.2365 44.6755 34.8604 43.7076 36.1675C42.7396 37.4746 41.3232 38.3712 39.7348 38.6821C39.6765 39.2956 39.5296 39.8973 39.299 40.4681C38.4947 42.4034 37.141 44.0559 35.4081 45.2181C33.6751 46.3802 31.6401 47.0001 29.5588 47H27.6463C24.3396 47 21.1684 45.6757 18.8302 43.3184C16.492 40.9611 15.1784 37.7639 15.1784 34.4302V29.9488C11.0221 29.5414 7.16525 27.5885 4.35927 24.4707C1.55329 21.3528 -0.000740975 17.2934 2.65044e-07 13.0835V11.0352C2.65044e-07 10.434 2.34693e-07 10.023 0.0325253 9.66232C0.200729 7.74522 1.03263 5.94889 2.3825 4.588C3.73237 3.2271 5.51414 2.38841 7.41572 2.21884C7.83431 2.19039 8.25388 2.17945 8.67336 2.18605V1.63953C8.67336 1.2047 8.8447 0.787681 9.14968 0.480209C9.45466 0.172736 9.86831 0 10.2996 0C10.7309 0 11.1446 0.172736 11.4496 0.480209C11.7545 0.787681 11.9259 1.2047 11.9259 1.63953V6.01163C11.9259 6.44646 11.7545 6.86348 11.4496 7.17095C11.1446 7.47843 10.7309 7.65116 10.2996 7.65116C9.86831 7.65116 9.45466 7.47843 9.14968 7.17095C8.8447 6.86348 8.67336 6.44646 8.67336 6.01163V5.46512C8.10309 5.46512 7.87975 5.4673 7.70195 5.48479C6.561 5.58654 5.49193 6.08975 4.68201 6.90629C3.87209 7.72282 3.37295 8.80062 3.27203 9.95088C3.25468 10.1476 3.25251 10.4012 3.25251 11.1204V13.0835C3.25251 16.7071 4.68032 20.1823 7.22184 22.7445C9.76335 25.3068 13.2104 26.7463 16.8046 26.7463C18.5029 26.7463 20.1845 26.4091 21.7535 25.7539C23.3225 25.0987 24.7481 24.1383 25.9489 22.9277C27.1498 21.717 28.1023 20.2798 28.7522 18.698C29.4021 17.1162 29.7366 15.4208 29.7366 13.7087V11.1204C29.7366 10.4012 29.7366 10.1476 29.7193 9.95088C29.6122 8.74001 29.0642 7.612 28.1809 6.78445C27.2976 5.95691 26.1416 5.48846 24.9359 5.46949V6.01163C24.9359 6.44646 24.7646 6.86348 24.4596 7.17095C24.1546 7.47843 23.741 7.65116 23.3097 7.65116C22.8784 7.65116 22.4647 7.47843 22.1597 7.17095C21.8547 6.86348 21.6834 6.44646 21.6834 6.01163V1.63953C21.6834 1.2047 21.8547 0.787681 22.1597 0.480209C22.4647 0.172736 22.8784 0 23.3097 0Z" fill="white"/>
</svg>
