<svg width="51" height="38" viewBox="0 0 51 38" fill="none" xmlns="http://www.w3.org/2000/svg">
<path d="M49.25 6.05H42.5564C41.114 6.05 40.3916 6.05 39.7124 5.8436C39.0332 5.6372 38.4308 5.2388 37.2308 4.4372C35.4308 3.2372 33.3764 1.8692 32.3564 1.5572C31.3364 1.25 30.254 1.25 28.0892 1.25C25.1468 1.25 23.2508 1.25 21.926 1.7972C20.606 2.3468 19.5644 3.386 17.4812 5.4692L15.65 7.298C15.182 7.7684 14.9468 8.0036 14.8028 8.234C14.5406 8.65302 14.4142 9.14278 14.4408 9.63635C14.4675 10.1299 14.6458 10.6032 14.9516 10.9916C15.1196 11.2052 15.3788 11.414 15.8948 11.8292C17.8052 13.3652 20.558 13.2116 22.2884 11.4716L25.25 8.4932H27.65L42.05 22.9796C42.6854 23.6221 43.0417 24.4892 43.0417 25.3928C43.0417 26.2964 42.6854 27.1635 42.05 27.806C41.7355 28.1224 41.3616 28.3735 40.9497 28.5448C40.5378 28.7161 40.0961 28.8043 39.65 28.8043C39.2039 28.8043 38.7622 28.7161 38.3503 28.5448C37.9384 28.3735 37.5645 28.1224 37.25 27.806L36.05 26.6012M36.05 26.6012L28.85 19.358M36.05 26.6012C36.6854 27.2437 37.0417 28.1108 37.0417 29.0144C37.0417 29.918 36.6854 30.7851 36.05 31.4276C35.7355 31.744 35.3616 31.9951 34.9497 32.1664C34.5378 32.3377 34.0961 32.4259 33.65 32.4259C33.2039 32.4259 32.7622 32.3377 32.3503 32.1664C31.9384 31.9951 31.5645 31.744 31.25 31.4276L28.85 29.0132M28.85 29.0132C29.4861 29.6558 29.8429 30.5234 29.8429 31.4276C29.8429 32.3318 29.4861 33.1994 28.85 33.842C28.5355 34.1584 28.1616 34.4095 27.7497 34.5808C27.3378 34.7521 26.8961 34.8403 26.45 34.8403C26.0039 34.8403 25.5622 34.7521 25.1503 34.5808C24.7384 34.4095 24.3645 34.1584 24.05 33.842L20.45 30.2204M28.85 29.0132L24.05 24.2132M20.45 30.2204L19.25 29.0132M20.45 30.2204C21.0861 30.863 21.4429 31.7306 21.4429 32.6348C21.4429 33.539 21.0861 34.4066 20.45 35.0492C20.1355 35.3656 19.7616 35.6167 19.3497 35.788C18.9378 35.9593 18.4961 36.0475 18.05 36.0475C17.6039 36.0475 17.1622 35.9593 16.7503 35.788C16.3384 35.6167 15.9645 35.3656 15.65 35.0492L8.8724 28.1324C7.4804 26.7116 6.7844 25.9988 5.8916 25.6244C5.0012 25.25 4.0052 25.25 2.0156 25.25H1.25" stroke="white" stroke-width="2.5" stroke-linecap="round" stroke-linejoin="round"/>
</svg>
