<svg width="43" height="43" viewBox="0 0 43 43" fill="none" xmlns="http://www.w3.org/2000/svg">
<path d="M11.6428 42.8571H32.807C34.0258 42.8567 35.1944 42.3722 36.056 41.5102C36.9177 40.6483 37.4017 39.4795 37.4017 38.2607V17.875C41.7106 17.7036 44.2945 12.9196 41.991 9.20179L40.6445 7.03036C40.1355 6.20822 39.425 5.52969 38.5803 5.05906C37.7356 4.58843 36.7847 4.34129 35.8178 4.34107H31.9749V2.64286C31.9749 1.94224 31.6967 1.27029 31.2015 0.774706C30.7062 0.279125 30.0344 0.000473392 29.3338 0C27.5969 0.00141973 25.9317 0.692265 24.7038 1.92076C23.476 3.14925 22.7861 4.81491 22.7856 6.55179V15.8107C19.3624 16.1446 16.7785 17.7661 14.8803 20.0446C12.7838 22.5625 11.5499 25.8446 10.8142 28.9964C10.0767 32.1661 9.81418 35.3143 9.7374 37.6571C9.70919 38.4973 9.70145 39.338 9.71418 40.1786H7.9499C6.92116 40.1781 5.91498 39.8771 5.05495 39.3127C4.19491 38.7482 3.5185 37.9448 3.1088 37.0011C2.69911 36.0575 2.57397 35.0148 2.74877 34.001C2.92357 32.9872 3.3907 32.0466 4.09275 31.2946L6.55704 28.6518C8.25594 26.8299 9.18123 24.4197 9.13792 21.929C9.09462 19.4383 8.0861 17.0617 6.3249 15.3L3.90883 12.8804C3.78621 12.7488 3.63836 12.6432 3.47407 12.57C3.30979 12.4968 3.13244 12.4575 2.95262 12.4543C2.77279 12.4511 2.59417 12.4842 2.4274 12.5516C2.26064 12.6189 2.10915 12.7192 1.98197 12.8464C1.85479 12.9735 1.75454 13.125 1.68718 13.2918C1.61982 13.4586 1.58674 13.6372 1.58991 13.817C1.59308 13.9968 1.63245 14.1742 1.70565 14.3385C1.77884 14.5027 1.88438 14.6506 2.01597 14.7732L4.43561 17.1946C5.7063 18.4648 6.43389 20.179 6.46487 21.9754C6.49586 23.7718 5.82781 25.51 4.60168 26.8232L2.1374 29.4661C1.08084 30.5998 0.378084 32.0172 0.115306 33.5445C-0.147471 35.0718 0.0411516 36.6426 0.658044 38.0642C1.27494 39.4859 2.29328 40.6966 3.58822 41.548C4.88315 42.3994 6.39838 42.8543 7.94811 42.8571H11.6428ZM29.2981 2.67857V5.68214C29.2981 6.42321 29.8963 7.02143 30.6374 7.02143H35.816C36.857 7.02143 37.8213 7.55893 38.3695 8.44286L39.7142 10.6161C40.9553 12.6161 39.5178 15.2036 37.1624 15.2036H36.0624C35.7072 15.2036 35.3665 15.3447 35.1154 15.5958C34.8642 15.847 34.7231 16.1877 34.7231 16.5429V38.2607C34.7231 39.3196 33.866 40.1786 32.807 40.1786H30.8892V38.2607C30.8897 37.2295 30.687 36.2082 30.2927 35.2553C29.8984 34.3024 29.3203 33.4364 28.5913 32.707C27.8624 31.9775 26.9969 31.3988 26.0442 31.0039C25.0916 30.609 24.0704 30.4056 23.0392 30.4054H20.3249C19.9697 30.4054 19.629 30.5465 19.3779 30.7976C19.1267 31.0488 18.9856 31.3894 18.9856 31.7446C18.9856 32.0998 19.1267 32.4405 19.3779 32.6917C19.629 32.9428 19.9697 33.0839 20.3249 33.0839H23.0392C25.8963 33.0839 28.2124 35.4018 28.2124 38.2607V40.1786H12.391C12.3776 39.3672 12.3848 38.5556 12.4124 37.7446C12.4874 35.5054 12.7356 32.5446 13.4213 29.6054C14.1106 26.65 15.2178 23.8232 16.9374 21.7607C18.616 19.7446 20.8963 18.425 24.1249 18.425C24.3008 18.425 24.4749 18.3904 24.6374 18.3231C24.7999 18.2557 24.9475 18.1571 25.0719 18.0327C25.1963 17.9084 25.2949 17.7607 25.3622 17.5982C25.4295 17.4357 25.4642 17.2616 25.4642 17.0857V6.55C25.4642 4.425 27.1767 2.69821 29.2981 2.67857Z" fill="white"/>
</svg>
