<svg width="51" height="51" viewBox="0 0 51 51" fill="none" xmlns="http://www.w3.org/2000/svg">
<path d="M15.4561 41.7548H7.93002C2.25385 41.7548 -0.937131 35.6835 3.78805 32.5364C7.59004 30.0014 11.9808 28.4889 16.5371 28.1446M18.5988 20.8211C24.7839 20.8211 28.2572 17.3433 28.2572 11.1606C28.2572 4.9778 24.7839 1.5 18.5988 1.5C12.4175 1.5 8.94044 4.97409 8.94044 11.1606C8.94044 17.3433 12.4175 20.8211 18.5988 20.8211ZM33.8108 49.3607C32.1132 49.186 30.8873 47.7147 30.839 46.0055C30.7969 44.7001 30.7635 43.4033 30.7387 42.1152C29.4385 42.0905 28.126 42.057 26.801 42.0149C25.096 41.9629 23.6249 40.7405 23.4503 39.0424C23.2646 37.2701 23.2646 35.5498 23.4503 33.7774C23.6249 32.0794 25.096 30.857 26.8048 30.805C28.1247 30.7628 29.436 30.7294 30.7387 30.7046C30.7635 29.4166 30.7957 28.1186 30.8353 26.8107C30.8873 25.1015 32.1132 23.6301 33.8071 23.4555C35.5827 23.2697 37.299 23.2697 39.0709 23.4555C40.7723 23.6301 41.9944 25.1015 42.0464 26.8107C42.0861 28.1186 42.1195 29.4166 42.1467 30.7046C43.4221 30.7294 44.7087 30.7616 46.0064 30.8012C47.7115 30.857 49.1825 32.0794 49.3608 33.7737C49.5466 35.5498 49.5466 37.2664 49.3608 39.0424C49.1825 40.7405 47.7115 41.9629 46.0064 42.0149C44.7087 42.0546 43.4209 42.088 42.143 42.1152C42.1183 43.4008 42.0861 44.6976 42.0464 46.0055C41.9944 47.7147 40.7723 49.186 39.0746 49.3607C37.3027 49.5464 35.5827 49.5464 33.8108 49.3607Z" stroke="white" stroke-width="3" stroke-linecap="round" stroke-linejoin="round"/>
</svg>
