<svg width="70" height="70" viewBox="0 0 70 70" fill="none" xmlns="http://www.w3.org/2000/svg">
<path d="M7.41595 6.89001H22.8837L27.8685 19.354L19.859 24.6938C19.3874 25.0085 19.0007 25.4347 18.7333 25.9347C18.4658 26.4347 18.326 26.993 18.326 27.56C18.3364 27.8839 18.326 27.5635 18.326 27.5635V27.6358C18.3278 27.7899 18.3347 27.9438 18.3467 28.0974C18.3651 28.3822 18.4053 28.7612 18.4673 29.2343C18.6016 30.1644 18.86 31.446 19.363 32.9549C20.3758 35.9865 22.3601 39.9104 26.2253 43.7757C30.0905 47.6409 34.0143 49.6253 37.0424 50.6381C38.5547 51.1411 39.8327 51.396 40.7698 51.5338C41.2983 51.6106 41.8309 51.6566 42.3648 51.6716L42.4096 51.675H42.4371C42.4371 51.675 42.8229 51.6544 42.4406 51.675C43.0802 51.6747 43.707 51.4963 44.251 51.1598C44.7949 50.8234 45.2344 50.3421 45.5203 49.77L47.8284 45.1537L63.1101 47.703V62.5854C55.8379 63.6361 36.1949 64.673 20.7616 49.2394C5.32832 33.8058 6.3618 14.159 7.41595 6.89001ZM25.4674 29.2343L31.6924 25.0865C33.0075 24.2093 33.9809 22.9066 34.4495 21.3968C34.918 19.887 34.8531 18.262 34.2657 16.7944L29.2809 4.33037C28.7694 3.05195 27.8865 1.95612 26.7463 1.18426C25.606 0.412399 24.2606 -9.23035e-05 22.8837 1.54929e-08H7.23681C4.10537 1.54929e-08 1.15996 2.1738 0.646663 5.57057C-0.524614 13.2943 -2.11273 36.1071 15.8905 54.1107C33.8937 72.1142 56.706 70.5227 64.4296 69.3548C67.8262 68.838 70 65.896 70 62.7645V47.703C70.0002 46.072 69.4218 44.4938 68.3677 43.2492C67.3137 42.0046 65.8523 41.1743 64.2435 40.906L48.9618 38.3601C47.5084 38.1175 46.0155 38.3473 44.7022 39.0157C43.389 39.6841 42.3246 40.7559 41.6655 42.0738L40.4735 44.4612C40.0523 44.3564 39.6351 44.2358 39.223 44.0995C37.0871 43.3898 34.1211 41.9291 31.0964 38.9044C28.0718 35.8797 26.6111 32.9136 25.9014 30.7742C25.7341 30.2678 25.5905 29.754 25.4708 29.2343H25.4674Z" fill="#205029"/>
</svg>
